<?xml version="1.0" encoding="UTF-8"?>
<svg id="_レイヤー_1" data-name="レイヤー 1" xmlns="http://www.w3.org/2000/svg" viewBox="0 0 361.92 168.33">
  <defs>
    <style>
      .cls-1 {
        stroke-width: 0px;
      }
    </style>
  </defs>
  <g>
    <path class="cls-1" d="m28.31,65.75l-11.07-43.2h-.36c.24,2.94.42,5.69.54,8.24.12,2.55.18,4.9.18,7.06v27.9H3.29V1.49h20.97l9.99,38.61h.27L44.51,1.49h20.79v64.26h-14.67v-28.17c0-2.4.06-4.81.18-7.25.12-2.43.27-5.02.45-7.79h-.36l-11.25,43.2h-11.34Z"/>
    <path class="cls-1" d="m65.8,66.25h-15.67v-28.67c0-2.42.06-4.86.18-7.27.07-1.42.15-2.9.24-4.44l-10.52,40.38h-12.11l-10.27-40.08c.11,1.59.2,3.13.27,4.59.12,2.56.18,4.94.18,7.09v28.4H2.79V.99h21.86l9.74,37.64L44.12.99h21.68v65.26Zm-14.67-1h13.67V1.99h-19.9l-9.99,38.61h-1.04L23.87,1.99H3.79v63.26h13.31v-27.4c0-2.13-.06-4.5-.18-7.04-.12-2.54-.3-5.31-.54-8.22l-.04-.54h1.29l11.07,43.2h10.57l11.25-43.2h1.28l-.03.53c-.18,2.76-.33,5.35-.45,7.78-.12,2.39-.18,4.82-.18,7.22v27.67Z"/>
  </g>
  <g>
    <path class="cls-1" d="m106.88,65.75h-30.96V1.49h30.96v12.96h-15.66v11.61h14.49v12.96h-14.49v13.59h15.66v13.14Z"/>
    <path class="cls-1" d="m107.38,66.25h-31.96V.99h31.96v13.96h-15.66v10.61h14.49v13.96h-14.49v12.59h15.66v14.14Zm-30.96-1h29.96v-12.14h-15.66v-14.59h14.49v-11.96h-14.49v-12.61h15.66V1.99h-29.96v63.26Z"/>
  </g>
  <g>
    <path class="cls-1" d="m145.76,65.75l-2.43-12.51h-13.86l-2.43,12.51h-16.56L126.14,1.49h20.16l15.84,64.26h-16.38Zm-4.77-25.65l-2.61-14.4c-.48-2.4-.87-4.71-1.17-6.93-.3-2.22-.57-4.23-.81-6.03-.18,1.74-.44,3.71-.77,5.89-.33,2.19-.74,4.49-1.21,6.89l-2.7,14.58h9.27Z"/>
    <path class="cls-1" d="m162.78,66.25h-17.43l-2.43-12.51h-13.04l-2.43,12.51h-17.61L125.75.99h20.94l16.09,65.26Zm-16.61-1h15.33L145.91,1.99h-19.38l-15.42,63.26h15.51l2.43-12.51h14.68l2.43,12.51Zm-4.58-24.65h-10.47l2.81-15.17c.48-2.39.89-4.7,1.21-6.87.33-2.2.59-4.18.76-5.87l.44-4.21.56,4.2c.24,1.8.51,3.81.81,6.03.3,2.21.69,4.53,1.16,6.9l2.72,15Zm-9.27-1h8.07l-2.5-13.81c-.48-2.38-.87-4.73-1.17-6.95-.1-.74-.2-1.46-.29-2.16-.09.65-.19,1.33-.29,2.03-.33,2.18-.74,4.51-1.22,6.91l-2.59,13.98Z"/>
  </g>
  <g>
    <path class="cls-1" d="m167.45,65.75V1.49h15.3v51.12h16.74v13.14h-32.04Z"/>
    <path class="cls-1" d="m199.99,66.25h-33.04V.99h16.3v51.12h16.74v14.14Zm-32.04-1h31.04v-12.14h-16.74V1.99h-14.3v63.26Z"/>
  </g>
  <g>
    <path class="cls-1" d="m237.11,65.75h-15.3V1.49h30.78v12.96h-15.48v13.77h14.31v12.96h-14.31v24.57Z"/>
    <path class="cls-1" d="m237.61,66.25h-16.3V.99h31.78v13.96h-15.48v12.77h14.31v13.96h-14.31v24.57Zm-15.3-1h14.3v-24.57h14.31v-11.96h-14.31v-14.77h15.48V1.99h-29.78v63.26Z"/>
  </g>
  <g>
    <path class="cls-1" d="m308.12,33.53c0,10.8-2.07,19.02-6.21,24.66-4.14,5.64-10.2,8.46-18.18,8.46s-13.98-2.83-18.18-8.5c-4.2-5.67-6.3-13.9-6.3-24.71s2.08-18.91,6.26-24.52c4.17-5.61,10.24-8.42,18.23-8.42s14.04,2.79,18.18,8.37,6.21,13.8,6.21,24.66Zm-32.94,0c0,13.14,2.85,19.71,8.55,19.71,2.88,0,5.01-1.6,6.39-4.82,1.38-3.21,2.07-8.17,2.07-14.9s-.71-11.79-2.12-15.03c-1.41-3.24-3.53-4.86-6.34-4.86-5.7,0-8.55,6.63-8.55,19.89Z"/>
    <path class="cls-1" d="m283.73,67.15c-8.05,0-14.3-2.93-18.58-8.71-4.25-5.73-6.4-14.14-6.4-25s2.14-19.15,6.35-24.82c4.25-5.72,10.52-8.62,18.63-8.62s14.36,2.88,18.58,8.57c4.19,5.64,6.31,14.04,6.31,24.96s-2.12,19.26-6.31,24.96c-4.22,5.75-10.47,8.66-18.58,8.66Zm0-66.15c-7.78,0-13.77,2.76-17.82,8.21-4.09,5.5-6.16,13.65-6.16,24.23s2.09,18.85,6.2,24.41c4.08,5.51,10.06,8.3,17.78,8.3s13.76-2.78,17.78-8.26c4.06-5.52,6.11-13.72,6.11-24.36s-2.06-18.9-6.11-24.36c-4.02-5.42-10-8.17-17.78-8.17Zm0,52.74c-6.01,0-9.05-6.8-9.05-20.21s3.04-20.39,9.05-20.39c3.02,0,5.31,1.74,6.8,5.16,1.43,3.29,2.16,8.41,2.16,15.23s-.71,11.83-2.11,15.09c-1.46,3.4-3.77,5.12-6.85,5.12Zm0-39.6c-5.34,0-8.05,6.52-8.05,19.39s2.71,19.21,8.05,19.21c2.68,0,4.62-1.48,5.93-4.51,1.35-3.13,2.03-8.08,2.03-14.7s-.7-11.67-2.07-14.83c-1.34-3.07-3.26-4.56-5.89-4.56Z"/>
  </g>
  <g>
    <path class="cls-1" d="m334.12,1.49c14.88,0,22.32,6.33,22.32,18.99,0,7.5-2.91,13.26-8.73,17.28l13.41,27.99h-16.83l-10.08-24.12h-1.98v24.12h-15.3V1.49h17.19Zm-.18,12.78h-1.71v15.48h1.62c4.56,0,6.84-2.82,6.84-8.46,0-4.68-2.25-7.02-6.75-7.02Z"/>
    <path class="cls-1" d="m361.92,66.25h-17.96l-10.08-24.12h-1.15v24.12h-16.3V.99h17.69c15.14,0,22.82,6.56,22.82,19.49,0,7.49-2.89,13.35-8.6,17.45l13.57,28.32Zm-17.29-1h15.7l-13.25-27.66.35-.24c5.65-3.9,8.51-9.58,8.51-16.87,0-12.44-7.14-18.49-21.82-18.49h-16.69v63.26h14.3v-24.12h2.81l10.08,24.12Zm-10.77-35h-2.12V13.77h2.21c4.81,0,7.25,2.53,7.25,7.52,0,5.95-2.47,8.96-7.34,8.96Zm-1.12-1h1.12c4.27,0,6.34-2.6,6.34-7.96,0-4.39-2.04-6.52-6.25-6.52h-1.21v14.48Z"/>
  </g>
  <g>
    <path class="cls-1" d="m36.59,147.22c0,4.02-.83,7.56-2.48,10.62-1.65,3.06-3.98,5.46-6.97,7.2-3,1.74-6.57,2.61-10.71,2.61-2.82,0-5.49-.3-8.01-.9s-5.16-1.65-7.92-3.15v-15.48c2.52,1.74,5.1,3.08,7.74,4,2.64.93,5.07,1.4,7.29,1.4,1.86,0,3.24-.45,4.14-1.35s1.35-2.04,1.35-3.42c0-.96-.17-1.83-.5-2.61-.33-.78-1.05-1.68-2.16-2.7-1.11-1.02-2.83-2.25-5.17-3.69-2.52-1.56-4.7-3.18-6.52-4.86-1.83-1.68-3.26-3.66-4.27-5.94-1.02-2.28-1.53-5.13-1.53-8.55,0-5.7,1.67-10.26,5-13.68,3.33-3.42,8.17-5.13,14.54-5.13,5.34,0,10.74,1.53,16.2,4.59l-4.05,13.41c-4.44-2.76-8.28-4.14-11.52-4.14-1.68,0-2.88.39-3.6,1.17-.72.78-1.08,1.77-1.08,2.97s.19,2.12.58,2.93c.39.81,1.17,1.7,2.34,2.65,1.17.96,2.98,2.16,5.44,3.6,3.9,2.4,6.85,5.01,8.87,7.83,2.01,2.82,3.01,6.36,3.01,10.62Z"/>
    <path class="cls-1" d="m16.43,168.15c-2.84,0-5.58-.31-8.13-.91-2.55-.61-5.26-1.68-8.04-3.2l-.26-.14v-16.73l.78.54c2.47,1.71,5.04,3.03,7.62,3.94,2.57.91,4.97,1.37,7.12,1.37,1.71,0,2.99-.4,3.79-1.2s1.2-1.81,1.2-3.07c0-.89-.15-1.7-.46-2.42-.3-.71-.99-1.56-2.04-2.53-1.09-1-2.8-2.22-5.1-3.63-2.54-1.57-4.76-3.22-6.6-4.92-1.87-1.72-3.35-3.77-4.39-6.1-1.04-2.33-1.57-5.28-1.57-8.75,0-5.81,1.73-10.53,5.14-14.03,3.41-3.5,8.42-5.28,14.89-5.28,5.4,0,10.93,1.57,16.44,4.65l.35.2-4.35,14.42-.55-.34c-4.34-2.7-8.13-4.06-11.26-4.06-1.53,0-2.61.34-3.23,1.01-.64.69-.95,1.55-.95,2.63s.18,1.97.54,2.71c.36.74,1.1,1.58,2.21,2.49,1.15.94,2.96,2.14,5.38,3.56,3.95,2.43,6.98,5.11,9.02,7.97,2.06,2.9,3.11,6.57,3.11,10.91,0,4.08-.85,7.74-2.54,10.86-1.69,3.13-4.1,5.62-7.16,7.4-3.07,1.78-6.75,2.68-10.96,2.68Zm-15.43-4.85c2.62,1.4,5.15,2.39,7.54,2.96,2.47.59,5.13.89,7.89.89,4.03,0,7.55-.86,10.46-2.54,2.9-1.68,5.19-4.04,6.79-7,1.6-2.97,2.42-6.47,2.42-10.38,0-4.13-.98-7.61-2.92-10.33-1.96-2.75-4.9-5.34-8.72-7.69-2.46-1.44-4.31-2.67-5.5-3.64-1.24-1.02-2.05-1.94-2.47-2.82-.42-.87-.63-1.93-.63-3.14,0-1.32.41-2.44,1.21-3.31.82-.88,2.15-1.33,3.97-1.33,3.18,0,6.96,1.3,11.23,3.88l3.75-12.4c-5.24-2.87-10.49-4.33-15.6-4.33-6.19,0-10.96,1.68-14.18,4.98-3.22,3.31-4.85,7.79-4.85,13.33,0,3.34.5,6.14,1.49,8.35.99,2.21,2.39,4.15,4.16,5.78,1.8,1.65,3.97,3.27,6.45,4.8,2.35,1.45,4.12,2.71,5.25,3.75,1.17,1.08,1.92,2.02,2.28,2.87.35.84.53,1.79.53,2.81,0,1.51-.5,2.78-1.5,3.77s-2.5,1.5-4.49,1.5c-2.27,0-4.78-.48-7.46-1.42-2.4-.84-4.77-2.03-7.07-3.54v14.24Z"/>
  </g>
  <g>
    <path class="cls-1" d="m69.17,166.75l-11.07-43.2h-.36c.24,2.94.42,5.69.54,8.24.12,2.55.18,4.9.18,7.06v27.9h-14.31v-64.26h20.97l9.99,38.61h.27l9.99-38.61h20.79v64.26h-14.67v-28.17c0-2.4.06-4.81.18-7.25.12-2.43.27-5.02.45-7.79h-.36l-11.25,43.2h-11.34Z"/>
    <path class="cls-1" d="m106.66,167.25h-15.67v-28.67c0-2.42.06-4.86.18-7.27.07-1.42.15-2.9.24-4.44l-10.52,40.38h-12.11l-10.27-40.08c.11,1.59.2,3.13.27,4.59.12,2.56.18,4.94.18,7.09v28.4h-15.31v-65.26h21.86l9.74,37.64,9.74-37.64h21.68v65.26Zm-14.67-1h13.67v-63.26h-19.9l-9.99,38.61h-1.04l-9.99-38.61h-20.08v63.26h13.31v-27.4c0-2.13-.06-4.5-.18-7.04-.12-2.54-.3-5.31-.54-8.22l-.04-.54h1.29l11.07,43.2h10.57l11.25-43.2h1.28l-.03.53c-.18,2.76-.33,5.35-.45,7.78-.12,2.39-.18,4.82-.18,7.22v27.67Z"/>
  </g>
  <g>
    <path class="cls-1" d="m141.08,166.75h-27.36v-8.19l6.03-3.15v-41.58l-6.03-3.15v-8.19h27.36v8.19l-6.03,3.15v41.58l6.03,3.15v8.19Z"/>
    <path class="cls-1" d="m141.58,167.25h-28.36v-8.99l6.03-3.15v-40.97l-6.03-3.15v-8.99h28.36v8.99l-6.03,3.15v40.97l6.03,3.15v8.99Zm-27.36-1h26.36v-7.39l-6.03-3.15v-42.19l6.03-3.15v-7.39h-26.36v7.39l6.03,3.15v42.19l-6.03,3.15v7.39Z"/>
  </g>
  <g>
    <path class="cls-1" d="m148.64,166.75v-64.26h15.3v51.12h16.74v13.14h-32.04Z"/>
    <path class="cls-1" d="m181.18,167.25h-33.04v-65.26h16.3v51.12h16.74v14.14Zm-32.04-1h31.04v-12.14h-16.74v-51.12h-14.3v63.26Z"/>
  </g>
  <g>
    <path class="cls-1" d="m218.12,166.75h-30.96v-64.26h30.96v12.96h-15.66v11.61h14.49v12.96h-14.49v13.59h15.66v13.14Z"/>
    <path class="cls-1" d="m218.62,167.25h-31.96v-65.26h31.96v13.96h-15.66v10.61h14.49v13.96h-14.49v12.59h15.66v14.14Zm-30.96-1h29.96v-12.14h-15.66v-14.59h14.49v-11.96h-14.49v-12.61h15.66v-11.96h-29.96v63.26Z"/>
  </g>
  <g>
    <path class="cls-1" d="m225.77,159.46c0-2.7.72-4.78,2.16-6.25,1.44-1.47,3.51-2.21,6.21-2.21s4.65.74,6.03,2.21c1.38,1.47,2.07,3.55,2.07,6.25s-.71,4.7-2.12,6.17c-1.41,1.47-3.41,2.21-5.98,2.21s-4.62-.74-6.12-2.21c-1.5-1.47-2.25-3.52-2.25-6.17Z"/>
    <path class="cls-1" d="m234.14,168.33c-2.7,0-4.88-.79-6.47-2.35-1.59-1.56-2.4-3.75-2.4-6.52s.77-5.04,2.3-6.6c1.53-1.56,3.74-2.36,6.57-2.36s4.92.79,6.39,2.36c1.46,1.56,2.21,3.78,2.21,6.6s-.76,4.95-2.25,6.51c-1.5,1.57-3.64,2.36-6.35,2.36Zm0-16.83c-2.55,0-4.52.69-5.85,2.06-1.34,1.37-2.02,3.35-2.02,5.9s.71,4.44,2.1,5.81c1.4,1.37,3.34,2.06,5.77,2.06s4.32-.69,5.62-2.05c1.31-1.37,1.98-3.33,1.98-5.82s-.65-4.54-1.93-5.91c-1.28-1.36-3.18-2.05-5.67-2.05Z"/>
  </g>
</svg>