<?xml version="1.0" encoding="UTF-8"?>
<svg id="_レイヤー_1" data-name="レイヤー 1" xmlns="http://www.w3.org/2000/svg" viewBox="0 0 360.62 245.7">
  <defs>
    <style>
      .cls-1 {
        stroke-width: 0px;
      }
    </style>
  </defs>
  <path class="cls-1" d="m27.81,143.62l-11.07-43.2h-.36c.24,2.94.42,5.69.54,8.24.12,2.55.18,4.9.18,7.06v27.9H2.79v-64.26h20.97l9.99,38.61h.27l9.99-38.61h20.79v64.26h-14.67v-28.17c0-2.4.06-4.81.18-7.25.12-2.43.27-5.02.45-7.79h-.36l-11.25,43.2h-11.34Z"/>
  <path class="cls-1" d="m106.38,143.62h-30.96v-64.26h30.96v12.96h-15.66v11.61h14.49v12.96h-14.49v13.59h15.66v13.14Z"/>
  <path class="cls-1" d="m145.26,143.62l-2.43-12.51h-13.86l-2.43,12.51h-16.56l15.66-64.26h20.16l15.84,64.26h-16.38Zm-4.77-25.65l-2.61-14.4c-.48-2.4-.87-4.71-1.17-6.93-.3-2.22-.57-4.23-.81-6.03-.18,1.74-.44,3.71-.77,5.89-.33,2.19-.74,4.49-1.21,6.89l-2.7,14.58h9.27Z"/>
  <path class="cls-1" d="m166.95,143.62v-64.26h15.3v51.12h16.74v13.14h-32.04Z"/>
  <path class="cls-1" d="m236.61,143.62h-15.3v-64.26h30.78v12.96h-15.48v13.77h14.31v12.96h-14.31v24.57Z"/>
  <path class="cls-1" d="m307.62,111.4c0,10.8-2.07,19.02-6.21,24.66-4.14,5.64-10.2,8.46-18.18,8.46s-13.98-2.83-18.18-8.5c-4.2-5.67-6.3-13.9-6.3-24.71s2.08-18.91,6.26-24.52c4.17-5.61,10.24-8.42,18.23-8.42s14.04,2.79,18.18,8.37,6.21,13.8,6.21,24.66Zm-32.94,0c0,13.14,2.85,19.71,8.55,19.71,2.88,0,5.01-1.6,6.39-4.82,1.38-3.21,2.07-8.17,2.07-14.9s-.71-11.79-2.12-15.03c-1.41-3.24-3.53-4.86-6.34-4.86-5.7,0-8.55,6.63-8.55,19.89Z"/>
  <path class="cls-1" d="m333.62,79.36c14.88,0,22.32,6.33,22.32,18.99,0,7.5-2.91,13.26-8.73,17.28l13.41,27.99h-16.83l-10.08-24.12h-1.98v24.12h-15.3v-64.26h17.19Zm-.18,12.78h-1.71v15.48h1.62c4.56,0,6.84-2.82,6.84-8.46,0-4.68-2.25-7.02-6.75-7.02Z"/>
  <path class="cls-1" d="m36.09,225.09c0,4.02-.83,7.56-2.48,10.62-1.65,3.06-3.98,5.46-6.97,7.2-3,1.74-6.57,2.61-10.71,2.61-2.82,0-5.49-.3-8.01-.9s-5.16-1.65-7.92-3.15v-15.48c2.52,1.74,5.1,3.08,7.74,4,2.64.93,5.07,1.4,7.29,1.4,1.86,0,3.24-.45,4.14-1.35s1.35-2.04,1.35-3.42c0-.96-.17-1.83-.5-2.61-.33-.78-1.05-1.68-2.16-2.7-1.11-1.02-2.83-2.25-5.17-3.69-2.52-1.56-4.7-3.18-6.52-4.86-1.83-1.68-3.26-3.66-4.27-5.94-1.02-2.28-1.53-5.13-1.53-8.55,0-5.7,1.67-10.26,5-13.68,3.33-3.42,8.17-5.13,14.54-5.13,5.34,0,10.74,1.53,16.2,4.59l-4.05,13.41c-4.44-2.76-8.28-4.14-11.52-4.14-1.68,0-2.88.39-3.6,1.17-.72.78-1.08,1.77-1.08,2.97s.19,2.12.58,2.93c.39.81,1.17,1.7,2.34,2.65,1.17.96,2.98,2.16,5.44,3.6,3.9,2.4,6.85,5.01,8.87,7.83,2.01,2.82,3.01,6.36,3.01,10.62Z"/>
  <path class="cls-1" d="m68.67,244.62l-11.07-43.2h-.36c.24,2.94.42,5.69.54,8.24.12,2.55.18,4.9.18,7.06v27.9h-14.31v-64.26h20.97l9.99,38.61h.27l9.99-38.61h20.79v64.26h-14.67v-28.17c0-2.4.06-4.81.18-7.25.12-2.43.27-5.02.45-7.79h-.36l-11.25,43.2h-11.34Z"/>
  <path class="cls-1" d="m140.58,244.62h-27.36v-8.19l6.03-3.15v-41.58l-6.03-3.15v-8.19h27.36v8.19l-6.03,3.15v41.58l6.03,3.15v8.19Z"/>
  <path class="cls-1" d="m148.14,244.62v-64.26h15.3v51.12h16.74v13.14h-32.04Z"/>
  <path class="cls-1" d="m217.62,244.62h-30.96v-64.26h30.96v12.96h-15.66v11.61h14.49v12.96h-14.49v13.59h15.66v13.14Z"/>
  <path class="cls-1" d="m225.27,237.33c0-2.7.72-4.78,2.16-6.25,1.44-1.47,3.51-2.21,6.21-2.21s4.65.74,6.03,2.21c1.38,1.47,2.07,3.55,2.07,6.25s-.71,4.7-2.12,6.17c-1.41,1.47-3.41,2.21-5.98,2.21s-4.62-.74-6.12-2.21c-1.5-1.47-2.25-3.52-2.25-6.17Z"/>
</svg>